<?xml version="1.0" encoding="UTF-8"?>
<svg id="Layer_1" xmlns="http://www.w3.org/2000/svg" version="1.1" viewBox="0 0 300 300">
  <!-- Generator: Adobe Illustrator 29.2.1, SVG Export Plug-In . SVG Version: 2.1.0 Build 116)  -->
  <defs>
    <style>
      .st0 {
        fill: #494949;
      }
    </style>
  </defs>
  <path class="st0" d="M245.89,235.19c0,2.85-1,5.35-3,7.49-2,2.14-4.56,3.21-7.7,3.21h-48.8v-74.48h24.83l3.85-28.68h-28.68v-18.41c0-4.85.86-8.28,2.57-10.27,2.28-2.57,6.13-3.86,11.56-3.86h15.41v-26.11c-5.99-.57-13.41-.85-22.26-.85-11.13,0-20.12,3.28-26.97,9.84-6.85,6.57-10.27,15.99-10.27,28.26v21.4h-24.83v28.68h24.83v74.48h-91.61c-3.14,0-5.71-1.07-7.7-3.21-2-2.14-3-4.64-3-7.49V64.82c0-3.14,1-5.71,3-7.7,2-2,4.56-3,7.7-3h170.37c2.85,0,5.35,1,7.49,3,2.14,2,3.21,4.56,3.21,7.7v170.37Z"/>
</svg>