<?xml version="1.0" encoding="UTF-8"?>
<svg id="Layer_1" xmlns="http://www.w3.org/2000/svg" version="1.1" viewBox="0 0 300 300">
  <!-- Generator: Adobe Illustrator 29.2.1, SVG Export Plug-In . SVG Version: 2.1.0 Build 116)  -->
  <defs>
    <style>
      .st0 {
        fill: #494949;
      }
    </style>
  </defs>
  <path class="st0" d="M255.26,106.11c.31,8.81.47,23.44.47,43.89s-.25,35.16-.72,44.14c-.46,8.95-1.8,16.75-4.01,23.36-2.83,7.86-7.16,14.71-12.98,20.53-5.82,5.82-12.67,10.15-20.53,12.98-6.6,2.21-14.4,3.55-23.36,4.02-8.97.47-23.69.7-44.14.7s-35.16-.23-44.14-.7c-8.97-.47-16.76-1.98-23.36-4.5-7.88-2.52-14.72-6.68-20.53-12.5-5.84-5.82-10.15-12.67-12.99-20.53-2.19-6.61-3.53-14.41-4-23.36-.48-8.98-.71-23.69-.71-44.14s.23-35.16.71-44.14c.47-8.96,1.81-16.76,4-23.36,2.84-7.87,7.16-14.71,12.99-20.53,5.82-5.82,12.65-10.15,20.53-12.98,6.6-2.21,14.38-3.55,23.36-4.02,8.97-.47,23.67-.7,44.14-.7s35.16.22,44.14.7c8.96.48,16.76,1.82,23.36,4.02,7.86,2.83,14.71,7.16,20.53,12.98,5.82,5.82,10.15,12.67,12.98,20.53,2.21,6.6,3.61,14.47,4.25,23.61ZM232.6,212.3c1.88-5.35,3.14-13.83,3.78-25.49.31-6.92.48-16.68.48-29.26v-15.11c0-12.9-.17-22.66-.48-29.26-.63-11.97-1.89-20.45-3.78-25.49-3.77-9.76-10.54-16.53-20.3-20.3-5.03-1.89-13.54-3.15-25.48-3.78-6.93-.31-16.67-.47-29.26-.47h-15.1c-12.59,0-22.35.16-29.28.47-11.64.62-20.14,1.88-25.49,3.78-9.76,3.78-16.51,10.55-20.29,20.3-1.9,5.04-3.16,13.52-3.78,25.49-.33,6.91-.47,16.67-.47,29.26v15.11c0,12.59.15,22.35.47,29.26.62,11.65,1.88,20.14,3.78,25.49,4.09,9.76,10.85,16.52,20.29,20.3,5.35,1.89,13.85,3.15,25.49,3.78,6.93.31,16.69.47,29.28.47h15.1c12.9,0,22.66-.16,29.26-.47,11.95-.62,20.45-1.88,25.48-3.78,9.76-4.09,16.53-10.85,20.3-20.3ZM150,95.71c9.74,0,18.8,2.45,27.14,7.32,8.34,4.87,14.94,11.49,19.83,19.83,4.87,8.34,7.31,17.38,7.31,27.14s-2.44,18.8-7.31,27.13c-4.89,8.34-11.49,14.96-19.83,19.83-8.34,4.87-17.4,7.32-27.14,7.32s-18.8-2.45-27.15-7.32c-8.34-4.87-14.94-11.49-19.81-19.83-4.89-8.33-7.33-17.37-7.33-27.13s2.44-18.8,7.33-27.14c4.87-8.34,11.48-14.96,19.81-19.83,8.35-4.87,17.39-7.32,27.15-7.32ZM150,185.41c9.74,0,18.09-3.47,25.01-10.39,6.93-6.92,10.38-15.25,10.38-25.01s-3.45-18.1-10.38-25.01c-6.92-6.93-15.27-10.39-25.01-10.39s-18.1,3.47-25.03,10.39c-6.92,6.92-10.38,15.25-10.38,25.01s3.47,18.09,10.38,25.01c6.93,6.93,15.27,10.39,25.03,10.39ZM219.38,93.36c0-3.47-1.26-6.46-3.78-8.97-2.52-2.52-5.51-3.78-8.96-3.78s-6.46,1.26-8.98,3.78c-2.52,2.52-3.77,5.51-3.77,8.97s1.26,6.46,3.77,8.98c2.52,2.52,5.51,3.78,8.98,3.78s6.37-1.26,8.73-3.78c2.35-2.52,3.69-5.51,4.01-8.98Z"/>
</svg>