<?xml version="1.0" encoding="UTF-8"?>
<svg id="Layer_1" data-name="Layer 1" xmlns="http://www.w3.org/2000/svg" xmlns:xlink="http://www.w3.org/1999/xlink" viewBox="0 0 420.58 138.2">
  <defs>
    <style>
      .cls-1 {
        fill: #004135;
      }

      .cls-1, .cls-2 {
        fill-rule: evenodd;
      }

      .cls-2 {
        fill: url(#GradientFill_2);
      }
    </style>
    <linearGradient id="GradientFill_2" data-name="GradientFill 2" x1="200.2" y1="-3.77" x2="224.22" y2="118.69" gradientUnits="userSpaceOnUse">
      <stop offset="0" stop-color="#00a79a"/>
      <stop offset="1" stop-color="#004135"/>
    </linearGradient>
  </defs>
  <path class="cls-1" d="M361.86,119.53c.92,0,1.79.19,2.62.56.82.37,1.54.87,2.15,1.5.61.63,1.09,1.36,1.45,2.19.35.83.53,1.72.53,2.66s-.18,1.83-.55,2.67c-.36.84-.85,1.58-1.46,2.22-.61.64-1.33,1.14-2.14,1.52-.82.37-1.68.56-2.61.56-.53,0-1.03-.08-1.5-.24-.47-.16-.9-.37-1.28-.64-.38-.27-.7-.58-.96-.94-.26-.36-.44-.76-.54-1.18v2.71h-2.53v-17.63h2.53v6.99c.11-.44.29-.85.54-1.21.26-.36.58-.67.96-.93.38-.26.81-.46,1.28-.6.47-.14.97-.21,1.5-.21h0ZM361.8,130.88c.58,0,1.13-.12,1.65-.36.51-.24.97-.56,1.36-.97s.7-.88.93-1.41c.23-.53.35-1.1.35-1.7s-.11-1.14-.33-1.68-.53-1-.92-1.4c-.39-.4-.84-.72-1.36-.96-.51-.24-1.06-.36-1.62-.36s-1.14.12-1.66.36c-.52.24-.98.56-1.36.96-.38.4-.69.87-.92,1.41-.23.54-.35,1.11-.35,1.72s.11,1.14.33,1.68c.22.53.53,1,.92,1.4.39.4.84.72,1.34.96.51.24,1.05.36,1.64.36h0ZM382.84,119.79v11.59c0,.94-.16,1.82-.47,2.65-.31.82-.76,1.55-1.34,2.17-.59.62-1.29,1.11-2.11,1.46-.82.35-1.75.53-2.78.53-.48,0-.92-.04-1.33-.12-.41-.08-.82-.2-1.22-.37-.41-.17-.82-.39-1.25-.66-.43-.27-.9-.62-1.41-1.02l1.52-1.99c.48.43,1.04.8,1.69,1.13.65.33,1.34.49,2.09.49.58,0,1.13-.11,1.64-.33.51-.22.94-.54,1.3-.94.36-.41.65-.89.85-1.45.2-.56.31-1.17.31-1.85v-.66c-.18.92-.58,1.65-1.22,2.19-.64.54-1.4.81-2.29.81s-1.64-.19-2.37-.56c-.73-.37-1.35-.87-1.87-1.5-.52-.63-.94-1.35-1.24-2.17-.3-.82-.45-1.67-.45-2.55v-6.83h2.53v6.83c0,.53.08,1.05.25,1.57.17.51.4.97.7,1.37.3.4.67.72,1.09.96.43.24.9.36,1.41.36s.98-.12,1.4-.36c.42-.24.78-.56,1.09-.96.31-.4.55-.86.72-1.37.17-.51.25-1.04.25-1.57v-6.83h2.53ZM387.81,130.09c.5,0,.92.17,1.26.52.35.35.52.77.52,1.26s-.17.92-.52,1.26-.77.52-1.26.52-.92-.17-1.26-.52c-.35-.35-.52-.77-.52-1.26s.17-.92.52-1.26c.35-.35.77-.52,1.26-.52h0ZM403.02,124.26c-.28-.28-.57-.56-.85-.82-.28-.27-.58-.5-.9-.7-.32-.2-.66-.37-1.01-.49-.35-.12-.74-.19-1.17-.19-.6,0-1.17.12-1.72.35-.54.23-1.02.55-1.42.94-.41.4-.73.87-.96,1.41-.23.54-.35,1.12-.35,1.74s.12,1.17.36,1.7c.24.53.56,1,.96,1.4.4.4.87.71,1.41.94.54.23,1.11.35,1.72.35.8,0,1.52-.23,2.18-.68.66-.45,1.24-.95,1.75-1.5l1.81,1.78c-.39.41-.8.79-1.22,1.14-.43.35-.87.66-1.33.93-.46.27-.95.47-1.46.62-.51.15-1.07.23-1.68.23-.96,0-1.86-.18-2.71-.54-.85-.36-1.6-.86-2.23-1.48-.64-.62-1.14-1.35-1.52-2.19s-.56-1.75-.56-2.73.19-1.88.56-2.73c.37-.84.88-1.58,1.52-2.21.64-.63,1.38-1.12,2.23-1.48.85-.35,1.75-.53,2.71-.53.6,0,1.16.08,1.68.23.51.15,1,.36,1.46.62.46.27.9.58,1.33.93.43.35.83.74,1.22,1.14l-1.81,1.81h0ZM417.49,119.79h2.53v13.32h-2.53v-2.79c-.09.44-.27.85-.53,1.22-.27.37-.59.7-.97.97-.38.27-.81.49-1.28.65-.47.16-.97.24-1.5.24-.92,0-1.79-.19-2.61-.56-.82-.37-1.53-.88-2.14-1.52-.61-.64-1.1-1.38-1.46-2.22-.36-.84-.54-1.73-.54-2.67s.18-1.83.53-2.66c.35-.83.84-1.56,1.45-2.19.61-.63,1.33-1.13,2.14-1.5.82-.37,1.68-.56,2.61-.56.53,0,1.04.08,1.52.23.48.15.91.36,1.29.64.38.27.7.6.97.98.27.38.44.79.53,1.24v-2.82h0ZM413.24,130.88c.59,0,1.13-.12,1.65-.36.51-.24.96-.56,1.34-.96.38-.4.69-.86.92-1.4.23-.53.35-1.09.35-1.68s-.12-1.17-.35-1.72c-.23-.54-.54-1.01-.92-1.41-.38-.4-.83-.72-1.34-.96-.51-.24-1.06-.36-1.65-.36s-1.13.12-1.65.36c-.51.24-.96.56-1.34.96-.38.4-.69.86-.92,1.4-.23.53-.35,1.09-.35,1.68s.12,1.17.35,1.7c.23.53.54,1,.92,1.41.38.41.83.73,1.34.97.51.24,1.06.36,1.65.36Z"/>
  <path class="cls-2" d="M76.87,2.28C44.72-6.77,11.33,11.95,2.28,44.09c-9.05,32.15,9.67,65.54,41.81,74.59,7.13,2.01,14.31,2.65,21.28,2.08l-6.97-5.58c-3.23-.27-6.49-.84-9.73-1.75-27.21-7.66-43.05-35.92-35.39-63.13C20.95,23.1,49.21,7.25,76.42,14.91c4.7,1.32,9.06,3.26,13.02,5.7,12.99,8.01,42.23,50.05,53.53,64.2v-13.12C122.46,47.1,102.49,10.04,76.87,2.28h0ZM55.64,27.26c4.39,0,7.94,3.56,7.94,7.95s-3.56,7.95-7.94,7.95-7.94-3.56-7.94-7.95,3.56-7.95,7.94-7.95h0ZM272.28,41.38v-14.12h-49.43v77.68h49.43v-12.36h-33.54v-19.42h26.48v-12.36h-26.48v-19.42h33.54ZM152.23,27.26v14.12h22.95v63.56h15.89v-63.56h22.95v-14.12h-61.79ZM119.02,28.14h23.9v29.89l-23.9-29.89h0ZM89.5,28.14l53.42,67.67v10.01h-11.02l-39.3-50.4v49.52h-15.01V28.14h11.9ZM47.7,104.94v-55.83c2.35,1.35,5.06,2.13,7.94,2.13s5.6-.77,7.94-2.11v55.81h-15.89ZM336.07,84.92c-4.43,4.2-10.42,6.78-17,6.78-13.63,0-24.72-11.09-24.72-24.72s11.09-24.72,24.72-24.72c6.25,0,11.97,2.33,16.33,6.18l9.99-9.99c-6.94-6.39-16.19-10.31-26.32-10.31-21.42,0-38.84,17.43-38.84,38.84s17.42,38.84,38.84,38.84c10.45,0,19.97-4.17,26.98-10.93l-9.97-9.98h0ZM406.46,29.03v32.57h-37.07V29.03h-14.12v75.92h14.12v-31.59h37.07v31.59h14.12V29.03h-14.12Z"/>
</svg>