<?xml version="1.0" encoding="UTF-8"?>
<svg id="Layer_1" xmlns="http://www.w3.org/2000/svg" version="1.1" viewBox="0 0 300 300">
  <!-- Generator: Adobe Illustrator 29.2.1, SVG Export Plug-In . SVG Version: 2.1.0 Build 116)  -->
  <defs>
    <style>
      .st0 {
        fill: #494949;
      }

      .st1 {
        fill: #00a79a;
      }
    </style>
  </defs>
  <g>
    <path class="st1" d="M-649.55,35.86c-64.85-.83-118.34,49.93-118.91,113.06-.86,63.1,51.52,114.68,116.65,115.22,64.82.83,118.34-49.93,118.91-112.77.83-63.1-51.55-114.97-116.65-115.51ZM-651.81,257.85c-61.44-.54-110.99-49.39-110.14-108.93.54-59.57,50.95-107.56,112.39-106.76,61.44.57,110.99,49.39,110.14,108.96-.57,59.82-50.95,107.56-112.39,106.73Z"/>
    <path class="st1" d="M-585.86,176.47c-36.89-24.77-37.58,11.4-47.87,4.52-17.44-6.47-59.49-37.97-44.56-49.71,1.36-1.07,2.66-2.24,3.74-3.58,7.44-9.19,2.41-14.1-3.42-28.66-4.46-14-11.02-21.8-22.43-20.33-4.7.61-9.06,2.7-12.56,5.8-62.02,54.88,105.01,186.7,136.41,117.15,4.48-9.92-.12-19.04-9.3-25.2Z"/>
  </g>
  <g>
    <path class="st0" d="M804.13,35.44c-65.13-.57-118.63,50.19-119.48,113.32-.57,63.38,51.81,115.25,116.94,115.8,65.39.83,118.91-49.93,119.74-113.35.57-63.1-51.81-114.97-117.2-115.76ZM801.87,258.22c-61.73-.54-111.28-49.65-110.71-109.21.86-59.79,51.24-107.81,112.97-107.27,61.73.54,111.28,49.68,110.71,109.47-.86,59.82-51.27,107.85-112.97,107.02Z"/>
    <path class="st0" d="M861.03,110.62l-2.26-3.02c-1.14-1.4-2.54-3.02-3.69-4.39-1.11-.83-1.97-1.94-2.83-2.77-1.97-1.62-3.94-3.56-5.95-4.93-1.11-.83-2.26-1.65-3.4-2.19-.54-.54-1.11-.83-1.4-1.11-11.04-6.84-24.08-10.69-37.37-10.97h-.57c-21.79,0-41.89,9.06-55.5,25.25l-2.26,2.73c-8.78,11.54-13.58,25.79-13.87,40.07,0,14.28,4.52,28.53,13.01,40.33l2,2.77c9.32,11.23,21.5,19.46,35.37,23.6,6.23,1.62,12.75,2.74,19.56,2.74h.57c4.8,0,9.32-.29,13.87-1.11,1.97-.25,3.94-.79,5.95-1.37.54,0,1.11-.25,1.69-.54,1.15-.29,2.26-.54,3.4-1.08.57-.29,1.4-.57,2.26-.83,4.8-1.94,9.35-4.13,13.58-7.16q.29,0,.57-.25c2.54-1.65,5.12-3.85,7.66-6.04,1.11-.83,2.26-1.91,3.12-3.02l.83-.83c.86-1.08,1.72-1.91,2.54-3.02l2.29-2.73c8.78-11.51,13.58-25.51,13.87-40.07,0-14.25-4.55-28.53-13.04-40.04ZM756.84,107.32l.29-.29c.57-.54.86-.83,1.15-1.37q.29,0,.57-.25c.25-.29.54-.57.83-.83,0,0,.29-.29.57-.57.29,0,.57-.25.57-.54.29-.25.57-.25.57-.54.29,0,.57-.29.83-.54q.29-.29.57-.57c.29,0,.57-.25.86-.54.29,0,.29-.25.57-.25.29-.29.57-.57.83-.57,0-.25.29-.54.57-.54.29-.29.57-.29.86-.54,0-.29.29-.29.57-.54.29,0,.57-.29.83-.29,0-.29.29-.29.57-.54.29-.29.57-.29.86-.57,0,0,.29-.25.57-.25.29-.29.57-.29.83-.54.29,0,.29-.29.57-.29.29-.29.57-.29.86-.54.29,0,.57-.29.86-.29.29-.29.54-.29.83-.54,0,0,.29-.29.57-.29s.57-.29.86-.54c.29,0,.57,0,.57-.29.57,0,.83-.25,1.11-.25q.29-.29.57-.29c.57-.29.86-.54,1.43-.54-5.12,5.22-9.64,12.05-13.04,20.58-3.69-1.65-6.81-3.31-9.89-5.22.25-.29.54-.54.83-.83ZM751.46,113.36c3.69,2.45,7.63,4.64,12.18,6.3-2.83,8.24-4.26,17.3-4.8,26.37h-19.56c.86-11.8,5.09-23.06,12.18-32.66ZM739.28,152.86l19.56.29c.25,9.06,1.69,18.1,3.94,26.33-4.23,1.65-8.49,3.85-12.18,6.04-7.06-9.6-10.75-20.86-11.32-32.66ZM776.11,206.38c0-.29-.29-.29-.57-.29-.29-.29-.57-.29-.86-.54-.29,0-.57-.29-.57-.29-.29-.25-.57-.25-.83-.54-.29,0-.57-.29-.86-.29-.29-.25-.57-.25-.86-.54,0,0-.29-.29-.57-.29-.29-.25-.54-.25-.83-.54-.29,0-.29-.25-.57-.25-.29-.29-.57-.29-.86-.57-.29,0-.57-.25-.57-.25-.29-.29-.54-.57-.83-.57-.29-.25-.57-.25-.57-.54-.29,0-.57-.25-.86-.54-.29,0-.57-.29-.57-.29-.29-.25-.54-.54-.83-.54q-.29-.29-.57-.54c-.29-.29-.57-.29-.86-.54q-.29-.29-.57-.57c-.29,0-.54-.25-.83-.54,0-.29-.29-.29-.57-.54,0,0-.29-.29-.57-.57-.29-.25-.57-.25-.57-.54-.29-.25-.57-.25-.86-.54q-.25-.29-.54-.54c-.29-.29-.57-.57-.86-.83,0-.29-.29-.29-.29-.29-.29-.54-.86-.83-1.14-1.37q-.25,0-.25-.29l-.86-.79c3.12-1.94,6.23-3.59,9.89-4.96,3.12,8.24,7.67,15.36,12.75,20.86-.57-.29-1.14-.54-1.69-.54ZM798.75,211.6c-11.04-1.94-20.96-12.08-26.91-27.99,8.21-2.48,17.56-3.85,27.19-4.13l-.29,32.12ZM799.04,172.61c-10.21.29-20.39,1.65-29.45,4.67-2.26-7.67-3.4-15.9-3.69-24.14l33.43.29-.29,19.18ZM799.61,146.56l-33.43-.29c.29-8.49,1.69-16.44,3.98-24.14,9.03,3.02,19.24,4.93,29.45,5.22v19.21ZM799.87,120.48c-9.6-.25-18.95-1.91-27.45-4.67,6.52-15.62,16.7-25.79,27.73-27.41l-.29,32.09ZM855.37,114.44c6.81,9.89,10.78,20.86,11.32,32.95l-19.53-.29c-.29-9.32-1.69-18.38-3.98-26.62,4.26-1.65,8.52-3.56,12.18-6.04ZM829.6,93.86c.29,0,.57,0,.57.29.57,0,.86.25,1.14.25q.25.29.54.57c.29,0,.57.25.86.25.29.29.57.29.86.29.29.29.57.54.83.54,0,.29.29.29.57.29.29.29.57.54.86.54q.29.29.57.54c.29,0,.57.29.83.29.29.29.57.29.57.54.29,0,.57.29.86.57.29,0,.57.25.57.25.29.29.57.54.86.54q.29.29.54.57c.29,0,.57.25.86.54.29,0,.29.29.57.29.29.25.57.54.83.8,0,0,.29.29.57.29.29.29.57.54.57.54.29.29.57.57.57.57.29.25.57.54.86.54.29.25.29.54.57.54.25.29.54.54.83.83,0,0,.29.29.57.29.29.25.57.79.86,1.08l.29.29c.29.25.83.83,1.11,1.08,0,.29.29.29.29.29l.86.83c-3.12,1.91-6.23,3.56-9.92,5.22-3.4-8.52-7.63-15.65-12.72-20.86.54,0,1.11.29,1.4.54ZM807.25,88.39c11.04,2.19,20.96,12.34,26.91,27.99-8.49,2.45-17.56,4.1-27.19,4.1l.29-32.09ZM806.67,127.35c10.46,0,20.67-1.65,29.74-4.39,2.26,7.41,3.4,15.65,3.69,24.14l-33.43-.54v-19.21ZM806.39,153.43l33.43.54c-.29,8.24-1.72,16.44-3.98,23.85-9.06-3.02-19.24-4.64-29.45-5.22v-19.18ZM805.81,211.6l.29-32.12c9.64.54,18.99,2.19,27.48,4.93-6.52,15.39-16.7,25.54-27.76,27.19ZM849.13,192.93s-.25,0-.25.29c-.57.25-.86.79-1.43,1.08q0,.29-.29.29c-.29.25-.57.54-.86.83q-.25.25-.54.54c-.29.25-.57.54-.86.54,0,.29-.29.54-.57.54,0,.29-.29.57-.57.57-.29.25-.57.54-.57.54-.29.29-.54.54-.83.54q-.29.29-.57.54c-.29.29-.57.29-.86.57,0,0-.29.25-.54.54-.29,0-.57.29-.86.29,0,.25-.29.54-.57.54-.29.25-.57.25-.86.54,0,0-.29.29-.57.29-.29.25-.54.54-.83.54q-.29.29-.57.54c-.29,0-.57.29-.86.29-.29.25-.57.25-.57.54-.29,0-.54.29-.83.29-.29.25-.57.25-.86.54-.29,0-.57.29-.86.29,0,.25-.29.25-.57.25-.25.29-.54.29-.83.54-.29,0-.57.29-.57.29-.57.29-.86.29-1.15.54q-.29,0-.54.29c-.57,0-.86.29-1.43.54,5.09-5.47,9.64-12.34,13.04-20.58,3.66,1.37,6.77,3.31,9.89,5.22-.29.29-.57.54-.86.83ZM854.54,186.6c-3.69-2.45-7.66-4.39-12.18-6.3,2.83-8.24,4.23-17.3,4.52-26.33l19.81.25c-.83,11.8-5.09,22.8-12.15,32.38Z"/>
  </g>
  <g>
    <path class="st1" d="M-382.72-422.32c-65.13-.54-118.63,50.22-119.48,113.35-.57,63.38,51.81,115.22,116.94,115.8,65.39.8,118.91-49.96,119.74-113.35.57-63.1-51.81-114.97-117.2-115.8ZM-384.98-199.22c-61.73-.83-111.28-49.68-110.71-109.5.86-59.82,51.24-107.85,112.97-107.27,61.73.83,111.28,49.64,110.71,109.47-.86,59.82-51.27,107.85-112.97,107.3Z"/>
    <path class="st1" d="M-307.98-350.16c-.29-.79-1.11-1.62-1.69-2.19-.57-.54-1.43-1.08-2-1.37-2.26-1.65-4.8-2.19-7.63-2.19l-127.98-1.37c-2.54,0-4.8.54-7.06,1.65-.57.25-1.43.83-2,1.37-.83.54-1.4,1.08-1.97,1.91-2.26,2.48-3.4,5.5-3.4,8.78l-.86,70.25c0,3.31,1.14,6.58,3.12,9.06.57.54,1.43,1.37,2,1.91h.29c.54.57,1.11,1.11,1.97,1.37,1.97,1.11,4.52,1.65,6.81,1.65l127.94,1.37c2.83,0,5.66-.83,7.95-2.19.83-.54,1.4-1.08,1.97-1.62h.29c.57-.57,1.14-1.4,1.69-1.94,1.72-2.19,2.54-4.93,2.54-7.95l.86-70.51c0-2.77-.86-5.79-2.83-7.98ZM-447.28-352.07l127.98,1.37c1.14,0,2.54.29,3.69.54l-3.12,3.02-41.63,39.53-19.53,18.38c-1.97,1.91-5.09,1.91-7.35,0l-18.7-18.67-3.69-3.56-40.77-40.33c1.15-.29,2-.29,3.12-.29ZM-455.49-268.11c-1.15-1.37-1.69-3.28-1.69-4.93l.83-70.54c0-1.91.57-3.56,1.72-5.22l41.06,40.9-41.92,39.79ZM-320.45-263.18l-127.94-1.37c-.86,0-1.72,0-2.83-.25l41.6-39.25,18.7,18.38c1.97,1.91,4.52,3.02,7.35,3.02s5.37-.83,7.67-3.02l19.24-18.38,40.49,40.07c-1.43.54-2.83.8-4.26.8ZM-311.38-271.67c0,1.37-.29,2.74-1.11,4.1l-40.2-40.04,41.03-38.96c.57,1.37,1.15,2.99,1.15,4.39l-.86,70.51Z"/>
  </g>
  <g>
    <path class="st0" d="M151.14,35.44c-65.13-.83-118.63,49.93-119.48,113.32-.57,63.38,51.81,115.26,116.94,115.8,65.39.83,118.91-49.93,119.74-113.32.57-63.38-51.81-115.26-117.2-115.8ZM148.89,258.26c-61.73-.54-111.28-49.68-110.71-109.5.86-59.82,51.24-107.56,112.97-107.02,61.73.57,111.28,49.68,110.71,109.5-.86,59.82-51.27,107.56-112.97,107.02Z"/>
    <g>
      <g>
        <path class="st0" d="M162.93,125.59c-.08,6.85-5.87,12.34-12.93,12.27-7.07-.07-12.74-5.68-12.66-12.54.08-6.84,5.87-12.34,12.93-12.26,7.07.07,12.74,5.68,12.66,12.53Z"/>
        <path class="st0" d="M189.09,129.3c.29-13.2-5.37-25-14.44-32.66-6.52-5.5-15.01-9.06-24.08-9.06s-17.56,3.31-24.36,8.52c-9.03,7.66-14.98,19.21-15.27,32.38,0,0-3.12,26.05,26.91,62.56,3.37,4.1,7.06,8.24,11.32,12.63,4.52-4.13,8.49-8.52,11.89-12.34,30.56-35.97,28.02-62.02,28.02-62.02ZM149.71,150.41c-14.15,0-25.47-11.51-25.47-25.25.29-13.71,11.89-24.97,26.05-24.68,14.44,0,25.76,11.51,25.76,25.22-.29,13.74-11.89,25-26.33,24.71Z"/>
      </g>
      <path class="st0" d="M165.01,191.85c-.57.25-.86.83-1.4,1.37,0,0,0,.29-.29.29,16.41,1.37,28.02,4.64,28.02,8.78,0,4.93-18.67,8.49-41.89,8.49-22.96-.25-41.92-4.67-41.92-9.6,0-3.85,11.61-6.87,27.73-7.95v-.29c-.54-.54-.83-1.08-1.4-1.62-20.1,1.37-34.54,5.18-34.54,9.86,0,6.04,22.36,10.97,50.12,11.26,27.45.29,50.09-4.39,50.09-10.15,0-4.67-14.44-9.06-34.54-10.43Z"/>
    </g>
  </g>
</svg>