<?xml version="1.0" encoding="UTF-8"?>
<svg id="Layer_1" xmlns="http://www.w3.org/2000/svg" version="1.1" viewBox="0 0 242.73 228.3">
  <!-- Generator: Adobe Illustrator 29.2.1, SVG Export Plug-In . SVG Version: 2.1.0 Build 116)  -->
  <defs>
    <style>
      .st0 {
        fill: #00a79a;
      }
    </style>
  </defs>
  <path class="st0" d="M121.66,0C56.82-.82,3.32,49.94,2.75,113.07c-.86,63.1,51.52,114.68,116.65,115.22,64.82.83,118.34-49.93,118.91-112.77C239.15,52.42,186.77.55,121.66,0ZM119.41,222c-61.44-.54-110.99-49.39-110.14-108.93C9.81,53.5,60.22,5.51,121.66,6.31c61.44.57,110.99,49.39,110.14,108.96-.57,59.82-50.95,107.56-112.39,106.73Z"/>
  <path class="st0" d="M185.36,140.63c-36.89-24.77-37.58,11.4-47.87,4.52-17.44-6.47-59.49-37.97-44.56-49.71,1.36-1.07,2.66-2.24,3.74-3.58,7.44-9.19,2.41-14.1-3.42-28.66-4.46-14-11.02-21.8-22.43-20.33-4.7.61-9.06,2.7-12.56,5.8C-3.78,103.56,163.25,235.37,194.65,165.83c4.48-9.92-.12-19.04-9.3-25.2h.01Z"/>
</svg>