<svg version="1.1" id="Layer_1" xmlns="http://www.w3.org/2000/svg" xmlns:xlink="http://www.w3.org/1999/xlink" x="0px" y="0px"
	 width="100%" viewBox="0 0 2380 2380" enable-background="new 0 0 2380 2380" xml:space="preserve">
<path fill="none" opacity="1.000000" stroke="#000000" stroke-linecap="round" stroke-linejoin="round" stroke-width="8.000000"
	d="
M1905.000000,1122.000000 
	C1905.000000,767.333313 1905.000000,412.666656 1905.000000,58.000000 
	C1905.000000,45.627407 1902.385742,43.001694 1890.000000,43.001648 
	C1381.666626,42.999725 873.333008,42.779690 365.000549,43.425213 
	C325.052368,43.475945 286.579529,55.448154 250.007919,72.017471 
	C163.498093,111.212013 102.576180,175.119247 67.138695,263.055908 
	C54.388149,294.695892 47.306896,327.730988 44.586002,361.967102 
	C43.043697,381.373383 43.099609,400.669434 43.095116,420.000031 
	C42.975498,934.666687 43.000019,1449.333374 42.999996,1964.000000 
	C42.999996,1976.265869 46.717495,1979.997681 59.000000,1979.997681 
	C555.000000,1980.000122 1051.000000,1980.027222 1547.000000,1979.948608 
	C1586.765747,1979.942261 1625.819458,1975.682983 1664.074463,1963.228760 
	C1746.322388,1936.452637 1809.102417,1885.085938 1854.662109,1812.787109 
	C1879.151245,1773.925171 1893.942261,1730.517456 1900.714600,1684.957520 
	C1903.454590,1666.525024 1905.000000,1647.761963 1905.000000,1629.000000 
	C1904.999878,1460.666626 1905.000000,1292.333374 1905.000000,1124.000000 
"/>
<path fill="none" opacity="1.000000" stroke="#000000" stroke-linecap="round" stroke-linejoin="round" stroke-width="9.000000"
	d="
M1172.000000,1981.000000 
	C1172.000000,2096.000000 1171.999023,2211.000000 1172.001343,2326.000000 
	C1172.001465,2336.288574 1176.678101,2340.994141 1187.000000,2340.994385 
	C1502.666626,2341.001221 1818.333496,2341.084961 2134.000000,2340.847900 
	C2160.796387,2340.827637 2186.425781,2333.843750 2211.018555,2323.042480 
	C2254.187500,2304.082520 2287.706787,2274.157471 2311.900635,2233.940186 
	C2327.240723,2208.440674 2336.521240,2180.792236 2340.268555,2151.033691 
	C2342.501709,2133.297119 2341.910156,2115.667480 2341.916504,2098.000000 
	C2342.031006,1778.333374 2342.000000,1458.666626 2342.000000,1139.000000 
	C2342.000000,1127.132935 2337.879639,1123.001587 2326.000000,1123.001587 
	C2012.333374,1122.999512 1698.666138,1122.719482 1385.000488,1123.265747 
	C1330.287842,1123.360962 1282.642700,1144.247803 1241.966919,1180.963379 
	C1223.132568,1197.963989 1207.962158,1218.051758 1196.355713,1240.186523 
	C1182.889282,1265.868652 1175.065674,1293.742310 1172.909424,1322.993286 
	C1171.999634,1335.336426 1172.010132,1347.659668 1172.009399,1360.000000 
	C1171.996094,1566.333374 1172.000000,1772.666626 1172.000000,1979.000000 
"/>
</svg>