<?xml version="1.0" encoding="UTF-8"?>
<svg id="Layer_1" xmlns="http://www.w3.org/2000/svg" version="1.1" viewBox="0 0 300 300">
  <!-- Generator: Adobe Illustrator 29.2.1, SVG Export Plug-In . SVG Version: 2.1.0 Build 116)  -->
  <defs>
    <style>
      .st0 {
        fill: #494949;
      }
    </style>
  </defs>
  <path class="st0" d="M144.99,39.65c51.69-2.19,98.1,31.91,111.56,81.63,17.22,63.6-25.34,128.54-90.25,137.97-73.25,10.64-135.45-51.14-125.67-124.38,6.96-52.16,51.76-92.99,104.37-95.22ZM212.07,85.86h-11.78c-14.34,15.15-28.08,30.87-42.84,45.61-.31.05-.93-.72-1.15-.96-2.37-2.56-4.83-6.16-7.01-8.99-9.06-11.74-17.76-23.74-26.73-35.55-13.47-.14-27-.28-40.44.11l52.07,70.63-52.07,57.06c-.09.52.24.27.54.31,3.52.49,7.36.2,10.91.11l45.77-49.38c.53-.09,2.33,2.07,2.78,2.57,2.68,2.99,5.28,6.56,7.76,9.76,9.46,12.2,18.33,24.87,27.81,37.06,13.33.13,26.72.38,40-.32l-55.11-74.32,49.49-53.69Z"/>
</svg>