<?xml version="1.0" encoding="UTF-8"?>
<svg id="Layer_1" xmlns="http://www.w3.org/2000/svg" version="1.1" viewBox="0 0 300 300">
  <!-- Generator: Adobe Illustrator 29.2.1, SVG Export Plug-In . SVG Version: 2.1.0 Build 116)  -->
  <defs>
    <style>
      .st0 {
        fill: #494949;
      }
    </style>
  </defs>
  <path class="st0" d="M277.92,85.56c2.28,8.78,3.91,22.12,4.89,40.03l.49,24.42-.49,24.42c-.98,18.23-2.6,31.74-4.89,40.52-1.62,5.54-4.57,10.41-8.8,14.66-4.23,4.23-9.27,7.16-15.13,8.78-8.45,2.28-28.32,3.91-59.57,4.89l-44.42.49-44.44-.49c-31.25-.98-51.1-2.6-59.57-4.89-5.85-1.62-10.9-4.55-15.13-8.78-4.23-4.24-7.15-9.11-8.79-14.66-2.26-8.78-3.9-22.29-4.87-40.52l-.49-24.42c0-7.15.15-15.3.49-24.42.97-17.91,2.6-31.25,4.87-40.03,1.64-5.87,4.56-10.9,8.79-15.15,4.23-4.23,9.28-7.16,15.13-8.78,8.47-2.28,28.32-3.9,59.57-4.89l44.44-.49,44.42.49c31.25.98,51.12,2.6,59.57,4.89,5.87,1.62,10.91,4.55,15.13,8.78,4.23,4.24,7.17,9.28,8.8,15.15ZM122.65,190.04l69.82-40.04-69.82-39.55v79.6Z"/>
</svg>